<svg xmlns="http://www.w3.org/2000/svg" viewBox="0 0 176.14 176"><g id="Layer_2" data-name="Layer 2"><g id="Hash_Table" data-name="Hash Table"><rect x="104" y="44" width="48" height="88" rx="7.8" transform="translate(40 216) rotate(-90)" fill="none" stroke="current" stroke-miterlimit="10" stroke-width="8"/><rect x="104" y="103.86" width="48" height="88.27" rx="7.8" transform="translate(-20 276) rotate(-90)" fill="none" stroke="current" stroke-miterlimit="10" stroke-width="8"/><rect x="104" y="-16" width="48" height="88" rx="7.8" transform="translate(100 156) rotate(-90)" fill="none" stroke="current" stroke-miterlimit="10" stroke-width="8"/><rect fill="current" stroke="none" x="108" y="124" width="8" height="48"/><rect fill="current" stroke="none" x="108" y="64" width="8" height="48"/><rect fill="current" stroke="none" x="108" y="4" width="8" height="48"/><path d="M54.1,43l13-13a2.82,2.82,0,0,0,0-4l-13-13" fill="none" stroke="current" stroke-miterlimit="10" stroke-width="8"/><path d="M54.1,103l13-13a2.82,2.82,0,0,0,0-4l-13-13" fill="none" stroke="current" stroke-miterlimit="10" stroke-width="8"/><path d="M54.1,163l13-13a2.82,2.82,0,0,0,0-4l-13-13" fill="none" stroke="current" stroke-miterlimit="10" stroke-width="8"/><rect x="4" y="10" width="36" height="36" rx="6" fill="none" stroke="current" stroke-miterlimit="10" stroke-width="8"/><rect x="4" y="70" width="36" height="36" rx="6" fill="none" stroke="current" stroke-miterlimit="10" stroke-width="8"/><rect x="4" y="130" width="36" height="36" rx="6" fill="none" stroke="current" stroke-miterlimit="10" stroke-width="8"/><rect fill="current" stroke="none" x="50.1" y="9" width="8" height="8" rx="4"/><rect fill="current" stroke="none" x="50.1" y="39" width="8" height="8" rx="4"/><rect fill="current" stroke="none" x="50.1" y="69" width="8" height="8" rx="4"/><rect fill="current" stroke="none" x="50.1" y="99" width="8" height="8" rx="4"/><rect fill="current" stroke="none" x="50.1" y="129" width="8" height="8" rx="4"/><rect fill="current" stroke="none" x="50.1" y="159" width="8" height="8" rx="4"/></g></g></svg>