<svg xmlns="http://www.w3.org/2000/svg" viewBox="0 0 176 176"><g id="Layer_2" data-name="Layer 2"><g id="Linked_List" data-name="Linked List"><rect fill="current" stroke="none" x="48" y="4" width="8" height="48"/><rect fill="current" stroke="none" x="20" y="69" width="8" height="8" rx="4"/><rect fill="current" stroke="none" x="20" y="99" width="8" height="8" rx="4"/><rect x="64" y="52" width="48" height="72" rx="7.8" transform="translate(0 176) rotate(-90)" fill="none" stroke="current" stroke-miterlimit="10" stroke-width="8"/><rect x="112" y="112" width="48" height="72" rx="7.8" transform="translate(-12 284) rotate(-90)" fill="none" stroke="current" stroke-miterlimit="10" stroke-width="8"/><rect x="16" y="-8" width="48" height="72" rx="7.8" transform="translate(12 68) rotate(-90)" fill="none" stroke="current" stroke-miterlimit="10" stroke-width="8"/><rect fill="current" stroke="none" x="96" y="64" width="8" height="48"/><rect fill="current" stroke="none" x="144" y="124" width="8" height="48"/><path d="M24,103,37,90a2.84,2.84,0,0,0,0-4L24,73" fill="none" stroke="current" stroke-miterlimit="10" stroke-width="8"/><path d="M72,163l13-13a2.84,2.84,0,0,0,0-4L72,133" fill="none" stroke="current" stroke-miterlimit="10" stroke-width="8"/><rect fill="current" stroke="none" x="68" y="129" width="8" height="8" rx="4"/><rect fill="current" stroke="none" x="68" y="159" width="8" height="8" rx="4"/></g></g></svg>