<svg xmlns="http://www.w3.org/2000/svg" viewBox="0 0 176 121.63"><g id="Layer_2" data-name="Layer 2"><g id="Queue"><rect fill="current" stroke="none" x="30.3" width="8" height="8" rx="4"/><rect x="64" y="36.76" width="48" height="48" rx="7.8" fill="none" stroke="current" stroke-miterlimit="10" stroke-width="8"/><rect x="4" y="48.76" width="48" height="48" rx="7.8" fill="none" stroke="current" stroke-miterlimit="10" stroke-width="8"/><rect x="124" y="24.76" width="48" height="48" rx="7.8" fill="none" stroke="current" stroke-miterlimit="10" stroke-width="8"/><path d="M34.3,34l-13-13a2.84,2.84,0,0,1,0-4l13-13" fill="none" stroke="current" stroke-miterlimit="10" stroke-width="8"/><path d="M154.91,117.63l-13-13a2.84,2.84,0,0,1,0-4l13-13" fill="none" stroke="current" stroke-miterlimit="10" stroke-width="8"/><rect fill="current" stroke="none" x="30.3" y="30" width="8" height="8" rx="4"/><rect fill="current" stroke="none" x="150.91" y="83.63" width="8" height="8" rx="4"/><rect fill="current" stroke="none" x="150.91" y="113.63" width="8" height="8" rx="4"/></g></g></svg>