<svg xmlns="http://www.w3.org/2000/svg" viewBox="0 0 147.04 176"><g id="Layer_2" data-name="Layer 2"><g id="Stack"><rect x="72.21" y="64" width="48" height="48" rx="7.8" transform="translate(8.21 184.21) rotate(-90)" fill="none" stroke="current" stroke-miterlimit="10" stroke-width="8"/><rect x="49.52" y="124" width="48" height="48" rx="7.8" transform="translate(-74.48 221.52) rotate(-90)" fill="none" stroke="current" stroke-miterlimit="10" stroke-width="8"/><rect x="49.52" y="4" width="48" height="48" rx="7.8" transform="translate(45.52 101.52) rotate(-90)" fill="none" stroke="current" stroke-miterlimit="10" stroke-width="8"/><path d="M34,21.09l-13,13a2.84,2.84,0,0,1-4,0l-13-13" fill="none" stroke="current" stroke-miterlimit="10" stroke-width="8"/><path d="M143,34.91l-13-13a2.84,2.84,0,0,0-4,0l-13,13" fill="none" stroke="current" stroke-miterlimit="10" stroke-width="8"/><rect fill="current" stroke="none" y="17.09" width="8" height="8" rx="4"/><rect fill="current" stroke="none" x="30" y="17.09" width="8" height="8" rx="4"/><rect fill="current" stroke="none" x="109.04" y="30.91" width="8" height="8" rx="4"/><rect fill="current" stroke="none" x="139.04" y="30.91" width="8" height="8" rx="4"/></g></g></svg>